<?xml version="1.0" standalone="no"?>
<!DOCTYPE svg PUBLIC "-//W3C//DTD SVG 20010904//EN"
 "http://www.w3.org/TR/2001/REC-SVG-20010904/DTD/svg10.dtd">
<svg version="1.0" xmlns="http://www.w3.org/2000/svg"
 width="639.000000pt" height="618.000000pt" viewBox="0 0 639.000000 618.000000"
 preserveAspectRatio="xMidYMid meet">

<g transform="translate(0.000000,618.000000) scale(0.100000,-0.100000)"
fill="#000000" stroke="none">
<path d="M2980 5879 c-346 -28 -671 -116 -985 -268 -288 -139 -501 -289 -729
-511 -225 -219 -390 -440 -526 -703 -213 -411 -312 -816 -311 -1277 0 -266 23
-457 82 -690 126 -491 364 -905 729 -1270 426 -427 951 -692 1555 -786 170
-27 628 -27 795 -1 596 94 1110 346 1528 751 662 640 962 1556 807 2461 -47
276 -119 496 -250 760 -174 353 -418 662 -723 912 -400 330 -936 557 -1443
612 -145 16 -399 21 -529 10z m255 -235 c11 -3 40 -38 64 -77 25 -40 70 -110
100 -157 l55 -85 12 148 c6 81 13 149 15 151 2 1 25 1 52 -2 47 -4 47 -4 47
-41 0 -20 -7 -117 -15 -216 -8 -99 -15 -191 -15 -204 0 -22 -3 -23 -52 -19
-31 3 -56 12 -62 21 -6 9 -51 80 -101 159 l-90 143 -7 -75 c-3 -41 -9 -109
-13 -150 l-6 -75 -55 3 -55 4 5 41 c3 23 10 110 16 192 6 83 13 171 16 198 6
45 7 47 37 47 18 0 41 -3 52 -6z m-370 -55 c121 -57 176 -208 118 -324 -75
-150 -284 -192 -410 -82 -55 48 -77 101 -78 182 0 82 26 139 86 187 75 61 199
77 284 37z m953 -20 l40 -12 17 -96 c28 -163 20 -157 101 -81 115 108 103 102
157 84 26 -9 47 -19 47 -23 0 -4 -58 -60 -128 -125 -124 -113 -129 -120 -153
-188 -13 -38 -27 -72 -32 -75 -8 -5 -78 15 -90 27 -5 4 1 40 14 78 l22 71 -27
158 c-15 87 -30 169 -33 182 -5 19 -3 23 9 18 9 -3 34 -11 56 -18z m646 -275
c83 -48 152 -88 154 -89 6 -5 -32 -75 -41 -75 -6 0 -57 27 -115 60 -58 33
-106 59 -107 58 -24 -39 -44 -82 -40 -88 3 -5 38 -27 78 -49 113 -63 112 -62
93 -99 -9 -17 -19 -33 -24 -36 -4 -2 -50 20 -102 50 -104 59 -100 59 -136 -8
l-14 -26 108 -63 c59 -34 109 -64 112 -66 7 -6 -32 -73 -43 -73 -8 0 -298 162
-316 176 -5 4 229 414 236 414 3 0 74 -39 157 -86z m-2349 -199 c88 -59 164
-111 168 -115 5 -4 -15 -22 -43 -39 l-51 -32 -41 30 -40 29 -86 -55 c-48 -31
-89 -57 -91 -59 -2 -2 1 -25 6 -52 l9 -48 -48 -32 c-33 -23 -50 -29 -52 -20
-8 24 -76 463 -76 486 0 16 14 31 47 52 l46 29 46 -33 c25 -18 118 -81 206
-141z m294 135 c9 -26 8 -32 -7 -37 -9 -3 -44 -17 -76 -29 -33 -13 -62 -24
-66 -24 -12 0 -31 53 -23 61 12 11 126 57 145 58 9 1 20 -11 27 -29z m2451
-233 c0 -5 -32 -42 -72 -83 -82 -85 -89 -80 92 -63 l119 11 45 -37 c25 -21 46
-41 46 -45 0 -5 -39 -11 -87 -14 -49 -4 -107 -9 -129 -12 l-41 -5 -26 -157
c-14 -86 -23 -159 -21 -161 2 -2 114 14 249 36 l245 39 31 -47 c18 -29 28 -53
23 -61 -32 -55 -278 -408 -284 -408 -9 0 -60 76 -60 90 0 6 12 26 26 45 29 39
30 36 -44 147 l-45 68 -52 -6 -52 -6 -28 48 c-15 27 -47 69 -71 94 l-44 45 18
113 18 112 -45 0 c-40 0 -50 -5 -91 -45 l-46 -45 -39 40 -39 40 74 78 c41 42
115 118 164 169 l89 91 39 -30 c21 -17 38 -36 38 -41z m-1433 48 c354 -46 687
-189 964 -413 102 -82 270 -259 343 -361 563 -786 465 -1849 -232 -2512 -375
-358 -875 -547 -1387 -526 -388 16 -737 136 -1057 363 -113 80 -347 316 -430
434 -103 146 -238 404 -238 455 0 12 52 24 165 39 65 9 161 -12 285 -60 147
-58 399 -184 524 -262 54 -34 104 -62 112 -62 8 0 14 10 14 24 0 32 -12 38
-326 194 -394 194 -539 235 -707 197 -45 -10 -82 -14 -87 -9 -5 5 -20 52 -34
104 -96 363 -85 745 31 1099 67 204 197 440 334 606 64 78 217 230 294 292
203 164 508 310 767 367 209 46 458 58 665 31z m-1853 -64 c18 -20 18 -21 -32
-73 l-51 -53 141 -135 140 -135 -40 -38 -39 -38 -137 130 c-75 72 -139 131
-143 131 -3 0 -27 -23 -52 -51 l-46 -51 -33 34 -32 34 136 142 c144 151 145
151 188 103z m-199 -488 l193 -138 -30 -43 c-18 -27 -35 -41 -44 -38 -7 3 -97
64 -198 136 l-185 131 31 44 c18 25 34 45 36 45 3 0 91 -62 197 -137z m-327
-107 c22 -11 48 -55 117 -197 l88 -182 39 84 c21 46 46 100 55 121 l18 36 38
-15 c20 -8 37 -20 37 -26 0 -8 -155 -359 -166 -375 -1 -2 -17 5 -35 14 -30 14
-44 37 -119 195 -47 98 -88 179 -91 179 -3 0 -27 -48 -54 -107 -26 -60 -48
-109 -50 -110 -4 -6 -85 31 -83 37 51 121 165 360 171 360 4 0 20 -6 35 -14z
m442 -2352 c47 -75 86 -139 88 -144 3 -7 -68 -54 -73 -48 -1 2 -28 44 -60 93
-31 50 -59 91 -60 93 -3 3 -80 -42 -94 -54 -3 -3 37 -69 96 -160 13 -20 11
-23 -20 -43 -19 -12 -37 -21 -40 -21 -3 0 -27 34 -54 77 -26 42 -51 81 -55 86
-3 6 -33 -7 -70 -30 -34 -22 -68 -43 -75 -47 -14 -8 -67 66 -61 84 4 13 366
248 383 249 6 0 48 -60 95 -135z m3718 -192 c39 -30 72 -59 72 -64 0 -5 -12
-25 -27 -45 l-27 -35 -182 3 c-100 2 -181 1 -179 -2 2 -3 53 -43 114 -89 118
-90 116 -86 69 -143 l-23 -27 -182 140 c-101 78 -183 145 -183 151 0 6 12 26
28 45 l27 35 183 -7 c100 -4 182 -5 182 -2 0 3 -52 45 -115 93 -68 52 -112 92
-108 99 4 6 18 25 32 43 l25 31 110 -85 c61 -47 144 -110 184 -141z m-3548
-67 c94 -33 166 -126 177 -228 10 -100 -68 -216 -165 -245 -161 -48 -331 78
-332 246 0 66 20 116 68 166 69 72 159 94 252 61z m3011 -165 c47 -13 114 -72
141 -124 29 -55 31 -155 4 -210 -56 -112 -181 -174 -295 -146 -66 16 -143 83
-166 145 -27 68 -17 163 20 216 75 106 185 150 296 119z m-2661 -116 c22 -15
40 -29 40 -32 0 -3 -36 -61 -81 -129 -45 -69 -83 -138 -86 -158 -5 -30 -1 -39
30 -70 71 -71 117 -45 229 130 40 63 76 115 81 115 19 0 87 -54 83 -66 -9 -24
-148 -228 -175 -257 -59 -64 -140 -75 -229 -31 -94 47 -144 135 -125 220 9 40
170 303 186 304 4 0 25 -12 47 -26z m2307 -314 l102 -210 -50 -26 -50 -25
-100 205 c-54 112 -99 208 -99 213 0 8 74 51 91 52 3 1 51 -94 106 -209z
m-242 84 c8 -20 15 -40 15 -44 0 -5 -29 -18 -65 -30 -36 -12 -65 -23 -65 -25
0 -2 27 -80 60 -174 34 -95 58 -176 55 -180 -3 -5 -25 -16 -50 -25 -45 -15
-46 -15 -54 7 -4 12 -30 83 -56 157 -26 74 -51 145 -56 157 l-8 23 -66 -24
-66 -24 -10 26 c-24 62 -27 59 161 127 96 35 178 64 182 64 4 1 15 -15 23 -35z
m-1660 1 c28 -11 34 -24 84 -184 30 -94 58 -168 62 -164 3 5 26 67 50 139 l43
132 45 -16 c25 -8 48 -16 49 -18 2 -1 -29 -102 -70 -224 -72 -217 -73 -221
-98 -215 -68 17 -71 21 -130 200 -31 93 -59 165 -62 160 -3 -6 -24 -67 -47
-137 -24 -71 -44 -128 -45 -128 -12 0 -96 33 -96 38 0 4 33 104 72 224 80 239
68 224 143 193z m1258 -337 l127 -223 -38 -7 c-72 -13 -80 -11 -103 33 l-21
42 -76 -7 c-136 -12 -140 -13 -147 -55 -3 -20 -9 -41 -13 -47 -9 -14 -112 -26
-112 -13 0 13 127 437 139 466 8 16 21 23 53 26 24 2 48 4 53 5 6 1 68 -98
138 -220z m-603 185 c96 -26 170 -120 170 -216 0 -94 -63 -191 -146 -223 -38
-14 -66 -16 -181 -11 -74 3 -137 8 -139 9 -3 4 26 416 32 447 5 23 5 23 107
16 56 -3 127 -13 157 -22z"/>
<path d="M2690 5502 c-138 -69 -88 -287 66 -284 110 1 169 125 109 227 -17 30
-36 47 -65 59 -51 20 -67 20 -110 -2z"/>
<path d="M1890 5045 c10 -47 20 -88 22 -90 2 -3 30 12 62 31 32 20 54 40 49
44 -17 15 -141 100 -145 100 -3 0 2 -38 12 -85z"/>
<path d="M5118 4381 c-49 -10 -90 -19 -92 -22 -1 -2 14 -30 34 -62 l38 -57 49
67 c50 68 67 94 61 92 -2 0 -42 -9 -90 -18z"/>
<path d="M3885 4512 c-175 -45 -286 -105 -406 -221 -47 -46 -71 -76 -75 -98
-6 -31 -18 -43 -26 -25 -5 15 -190 138 -257 171 -160 81 -446 107 -506 47 -15
-15 -29 -20 -41 -16 -11 4 -29 0 -44 -10 -14 -10 -47 -30 -74 -45 -63 -35
-172 -139 -199 -190 -71 -132 -77 -157 -77 -312 0 -104 6 -180 21 -267 l22
-121 72 -23 c168 -54 307 -145 469 -306 95 -94 122 -114 192 -147 120 -56 202
-77 364 -93 176 -19 334 -67 388 -119 40 -39 55 -89 41 -139 -31 -114 -214
-130 -699 -64 -146 20 -308 39 -360 42 l-95 6 31 -32 c33 -34 67 -40 153 -25
24 4 91 -6 196 -29 259 -56 431 -73 575 -57 186 21 252 56 265 138 11 72 34
122 65 138 51 26 104 101 190 265 101 193 136 237 221 275 52 23 69 26 98 19
35 -9 36 -10 33 -51 -3 -34 0 -43 12 -43 13 0 16 12 16 63 0 62 0 62 43 91 55
37 116 153 147 281 30 120 37 305 17 401 -31 143 -120 313 -180 342 -15 8 -27
21 -27 32 0 13 -5 17 -15 14 -9 -4 -15 0 -15 10 0 9 -7 16 -15 16 -9 0 -33 11
-54 25 -79 53 -137 68 -271 71 -96 3 -141 -1 -195 -14z m363 -53 c70 -23 132
-49 139 -58 7 -9 25 -41 40 -71 15 -30 31 -56 36 -58 4 -2 7 -40 7 -85 0 -95
-16 -134 -73 -180 -33 -28 -36 -28 -60 -13 -13 9 -55 53 -93 98 -81 96 -166
162 -237 183 -63 19 -183 19 -259 1 -33 -8 -58 -9 -58 -4 0 15 48 93 68 111
23 21 153 86 207 103 75 24 146 17 283 -27z m-1545 -126 c-7 -2 -19 -2 -25 0
-7 3 -2 5 12 5 14 0 19 -2 13 -5z m134 -9 c-3 -3 -12 -4 -19 -1 -8 3 -5 6 6 6
11 1 17 -2 13 -5z m133 -69 c144 -72 162 -223 35 -289 -57 -30 -173 -29 -235
2 -82 41 -85 45 -85 120 0 130 68 198 190 189 34 -2 76 -12 95 -22z m870
-1559 c0 -2 -8 -10 -17 -17 -16 -13 -17 -12 -4 4 13 16 21 21 21 13z"/>
<path d="M4366 3077 c-20 -43 -78 -189 -128 -325 -106 -290 -164 -420 -203
-450 -46 -36 -140 -76 -375 -157 -216 -75 -312 -115 -355 -150 -19 -15 -18
-16 25 -9 25 4 83 21 130 39 47 18 150 54 230 80 188 62 255 98 365 195 50 45
129 110 177 146 57 42 99 84 123 120 71 106 195 398 195 458 0 57 -24 44 -43
-23 -23 -84 -87 -227 -144 -322 -53 -89 -142 -194 -160 -188 -7 2 22 87 77
224 92 229 134 365 128 412 -4 24 -9 18 -42 -50z"/>
<path d="M2510 2150 c-9 -6 -10 -10 -3 -10 6 0 15 5 18 10 8 12 4 12 -15 0z"/>
<path d="M2526 2111 c-3 -5 17 -17 45 -27 30 -11 64 -33 83 -54 32 -35 33 -36
59 -20 15 9 30 19 33 22 3 4 -31 24 -76 47 -79 39 -133 51 -144 32z"/>
<path d="M2759 1973 c26 -50 55 -63 164 -75 92 -10 115 -10 179 5 40 9 97 20
126 23 51 6 52 7 36 25 -24 27 -73 24 -147 -8 -45 -19 -80 -26 -127 -27 -57 0
-74 4 -134 37 -77 41 -113 48 -97 20z"/>
<path d="M1525 1662 c-79 -50 -100 -128 -56 -211 28 -51 129 -68 189 -31 46
28 72 76 72 133 0 40 -5 53 -33 84 -29 31 -41 37 -88 40 -41 3 -61 0 -84 -15z"/>
<path d="M4545 1513 c-115 -30 -130 -198 -23 -263 37 -23 101 -26 138 -7 13 7
35 28 48 47 19 28 23 44 19 83 -5 60 -30 95 -87 125 -44 22 -58 24 -95 15z"/>
<path d="M3496 1010 c-2 -8 -12 -42 -21 -75 -9 -33 -18 -68 -21 -77 -4 -15 2
-16 53 -11 32 3 63 8 69 12 8 4 -3 33 -32 86 -25 47 -45 73 -48 65z"/>
<path d="M2906 948 c-4 -51 -9 -117 -12 -145 l-6 -53 76 0 c73 0 78 2 113 34
33 30 37 39 41 93 5 78 -14 118 -71 144 -23 10 -63 19 -88 19 l-46 0 -7 -92z"/>
</g>
</svg>
